<svg width="124" height="32" viewBox="0 0 124 32" fill="none" xmlns="http://www.w3.org/2000/svg">
<path d="M13.9129 31.9999C13.853 31.9999 13.7932 31.9956 13.7339 31.9868C12.2226 31.7719 10.7501 31.3393 9.36172 30.7022C9.05772 30.5619 8.8215 30.3063 8.70491 29.9913C8.58832 29.6763 8.60087 29.3277 8.73981 29.022C8.87876 28.7163 9.13274 28.4784 9.44604 28.3606C9.75934 28.2428 10.1064 28.2546 10.411 28.3935C11.5789 28.9294 12.8176 29.2934 14.0889 29.4743C14.4057 29.5188 14.6938 29.6825 14.8952 29.9322C15.0965 30.1819 15.1961 30.499 15.1737 30.8196C15.1514 31.1401 15.0088 31.4403 14.7748 31.6593C14.5408 31.8784 14.2327 32.0001 13.9129 31.9999ZM18.1036 31.9974C17.7841 31.9972 17.4766 31.8753 17.243 31.6564C17.0094 31.4375 16.867 31.1378 16.8445 30.8177C16.822 30.4975 16.9211 30.1807 17.1219 29.9311C17.3226 29.6814 17.6101 29.5174 17.9263 29.4721C19.1972 29.2897 20.4353 28.9244 21.6025 28.3876C21.9071 28.2474 22.2547 28.2344 22.5688 28.3516C22.8828 28.4688 23.1377 28.7066 23.2773 29.0126C23.4169 29.3186 23.4297 29.6677 23.3131 29.9832C23.1964 30.2987 22.9598 30.5548 22.6552 30.695C21.2675 31.3334 19.7956 31.7676 18.2847 31.9843C18.2253 31.993 18.1653 31.9974 18.1053 31.9974H18.1036ZM6.35794 28.539C6.05441 28.5393 5.76101 28.4293 5.53184 28.2294C4.3787 27.2267 3.37353 26.0643 2.54658 24.777C2.45665 24.6369 2.39505 24.4805 2.3653 24.3165C2.33556 24.1526 2.33825 23.9843 2.37322 23.8214C2.4082 23.6585 2.47477 23.5041 2.56914 23.3671C2.6635 23.23 2.78382 23.113 2.92321 23.0226C3.06261 22.9323 3.21835 22.8704 3.38155 22.8405C3.54475 22.8106 3.71221 22.8133 3.87437 22.8485C4.03653 22.8836 4.19022 22.9505 4.32665 23.0453C4.46308 23.1401 4.57959 23.261 4.66952 23.401C5.36641 24.4856 6.21335 25.465 7.18489 26.3099C7.37993 26.4792 7.51874 26.7044 7.58269 26.9552C7.64665 27.2061 7.63268 27.4706 7.54267 27.7132C7.45266 27.9558 7.2909 28.165 7.07913 28.3126C6.86736 28.4603 6.6157 28.5393 6.35794 28.539ZM25.6547 28.5285C25.3974 28.5284 25.1461 28.4494 24.9347 28.302C24.7232 28.1546 24.5616 27.9458 24.4715 27.7036C24.3815 27.4614 24.3672 27.1973 24.4306 26.9467C24.4941 26.6961 24.6322 26.471 24.8265 26.3014C25.7973 25.4552 26.6433 24.4744 27.339 23.3887C27.5202 23.1057 27.806 22.9066 28.1335 22.8352C28.4609 22.7639 28.8031 22.8261 29.0848 23.0082C29.3666 23.1904 29.5648 23.4775 29.6358 23.8064C29.7068 24.1353 29.6449 24.4791 29.4636 24.7622C28.6382 26.0505 27.6342 27.2141 26.4821 28.218C26.2526 28.4186 25.9585 28.529 25.6543 28.5285H25.6547ZM1.85985 21.5301C1.58708 21.53 1.32167 21.4412 1.10332 21.277C0.884969 21.1127 0.725401 20.8819 0.648481 20.619C0.219054 19.149 0.000712286 17.625 6.10352e-05 16.093C6.10352e-05 15.7565 0.133143 15.4337 0.37003 15.1957C0.606918 14.9577 0.928207 14.8241 1.26322 14.8241C1.59823 14.8241 1.91951 14.9577 2.1564 15.1957C2.39329 15.4337 2.52637 15.7565 2.52637 16.093C2.52735 17.3836 2.71166 18.6675 3.07374 19.9058C3.12868 20.0951 3.13898 20.2945 3.10383 20.4885C3.06869 20.6824 2.98906 20.8654 2.87126 21.023C2.75345 21.1807 2.60072 21.3086 2.42516 21.3966C2.24961 21.4846 2.05605 21.5303 1.85985 21.5301ZM30.1448 21.5145C29.9485 21.5146 29.7549 21.4688 29.5792 21.3806C29.4036 21.2924 29.2509 21.1644 29.1331 21.0065C29.0154 20.8487 28.9359 20.6655 28.901 20.4714C28.866 20.2773 28.8766 20.0778 28.9318 19.8885C29.2924 18.6493 29.4749 17.3646 29.4737 16.0736V16.0469C29.473 15.8803 29.505 15.7151 29.5679 15.5609C29.6308 15.4067 29.7233 15.2664 29.8401 15.1481C29.9569 15.0298 30.0958 14.9358 30.2488 14.8714C30.4018 14.807 30.5659 14.7735 30.7318 14.7729H30.7368C31.071 14.7729 31.3915 14.9059 31.6282 15.1427C31.865 15.3796 31.9987 15.7011 32 16.0368V16.0736C32.001 17.6053 31.7843 19.1294 31.3562 20.5995C31.2797 20.8628 31.1203 21.0941 30.9019 21.2588C30.6835 21.4234 30.4179 21.5125 30.1448 21.5128V21.5145ZM1.85269 13.1879C1.65647 13.1881 1.46292 13.1423 1.28737 13.0542C1.11183 12.9662 0.959121 12.8382 0.841358 12.6806C0.723595 12.5229 0.644014 12.3398 0.608927 12.1459C0.57384 11.9519 0.584211 11.7525 0.639217 11.5632C1.06661 10.0917 1.70215 8.68939 2.52637 7.39934C2.70739 7.11613 2.99298 6.91676 3.32032 6.84509C3.4824 6.8096 3.64985 6.80653 3.81312 6.83606C3.97638 6.86558 4.13225 6.92712 4.27184 7.01717C4.41143 7.10721 4.532 7.22399 4.62666 7.36084C4.72132 7.49769 4.78823 7.65194 4.82355 7.81477C4.85888 7.97759 4.86193 8.14581 4.83254 8.30983C4.80315 8.47384 4.74189 8.63043 4.65226 8.77067C3.95793 9.85592 3.42263 11.0359 3.06279 12.2743C2.98639 12.5374 2.8272 12.7687 2.60907 12.9334C2.39093 13.0981 2.12557 13.1874 1.85269 13.1879ZM30.1352 13.1418C29.8626 13.1417 29.5974 13.053 29.3792 12.8891C29.1609 12.7251 29.0013 12.4946 28.9242 12.232C28.5604 10.995 28.0216 9.8169 27.3242 8.73387C27.1545 8.4516 27.1008 8.11404 27.1745 7.79269C27.2482 7.47134 27.4435 7.19143 27.7191 7.01228C27.9947 6.83313 28.3289 6.76879 28.651 6.83291C28.973 6.89702 29.2575 7.08455 29.4442 7.35577C30.2735 8.64279 30.9142 10.043 31.3465 11.5133C31.4414 11.8361 31.4048 12.1835 31.2448 12.4791C31.0847 12.7748 30.8143 12.9944 30.4931 13.0898C30.3767 13.1242 30.256 13.1417 30.1347 13.1418H30.1352ZM6.33479 6.16675C6.07748 6.16679 5.8263 6.0879 5.61485 5.94062C5.4034 5.79334 5.24177 5.58471 5.15157 5.34263C5.06137 5.10055 5.04691 4.83657 5.11013 4.586C5.17334 4.33544 5.31122 4.11025 5.50531 3.94056C6.65604 2.93458 7.94401 2.09905 9.33015 1.45931C9.48158 1.38457 9.64638 1.34106 9.81482 1.33136C9.98327 1.32166 10.1519 1.34595 10.3109 1.40281C10.4698 1.45967 10.6158 1.54794 10.7402 1.66242C10.8647 1.77689 10.965 1.91525 11.0353 2.06932C11.1057 2.22339 11.1445 2.39005 11.1497 2.55947C11.1549 2.72889 11.1262 2.89763 11.0654 3.05572C11.0045 3.21382 10.9128 3.35808 10.7956 3.47997C10.6783 3.60187 10.538 3.69893 10.3828 3.76544C9.21546 4.30462 8.13071 5.00837 7.16131 5.85543C6.93229 6.05611 6.63869 6.1667 6.33479 6.16675ZM25.6295 6.13587C25.3263 6.13618 25.0333 6.02653 24.8042 5.82709C23.8323 4.98289 22.7452 4.28253 21.576 3.74725C21.279 3.60295 21.0499 3.34761 20.9378 3.03583C20.8257 2.72405 20.8396 2.38059 20.9763 2.07891C21.1131 1.77724 21.3619 1.54129 21.6696 1.42155C21.9773 1.3018 22.3194 1.30777 22.6227 1.43816C24.0105 2.07357 25.3007 2.90497 26.4543 3.90714C26.6493 4.07642 26.7881 4.30157 26.8521 4.55237C26.9161 4.80318 26.9021 5.06765 26.8122 5.31027C26.7222 5.55289 26.5605 5.76207 26.3488 5.90972C26.1371 6.05737 25.8855 6.13643 25.6278 6.13629L25.6295 6.13587ZM13.8779 2.69021C13.5583 2.69029 13.2506 2.56868 13.0167 2.34989C12.7829 2.13109 12.6402 1.83138 12.6176 1.51114C12.595 1.1909 12.694 0.873939 12.8947 0.624135C13.0955 0.374332 13.383 0.210253 13.6994 0.164964C15.2081 -0.0525522 16.7399 -0.054973 18.2493 0.157773C18.4149 0.179436 18.5746 0.233869 18.7191 0.317926C18.8636 0.401982 18.9901 0.513992 19.0912 0.647476C19.1924 0.78096 19.2662 0.933268 19.3084 1.09559C19.3506 1.25791 19.3603 1.42702 19.337 1.59314C19.3137 1.75927 19.2578 1.9191 19.1726 2.06339C19.0875 2.20769 18.9747 2.33358 18.8407 2.4338C18.7068 2.53401 18.5544 2.60655 18.3924 2.64722C18.2304 2.68789 18.062 2.69589 17.8969 2.67075C16.6237 2.49224 15.3319 2.49437 14.0594 2.67709C13.9993 2.68583 13.9387 2.69021 13.8779 2.69021Z" fill="url(#paint0_linear_52_8509)"/>
<path d="M16.0003 19.9608C18.1374 19.9608 19.8698 18.2204 19.8698 16.0735C19.8698 13.9267 18.1374 12.1863 16.0003 12.1863C13.8633 12.1863 12.1309 13.9267 12.1309 16.0735C12.1309 18.2204 13.8633 19.9608 16.0003 19.9608Z" fill="url(#paint1_linear_52_8509)"/>
<path d="M15.9996 25.8024C14.9854 25.8033 13.9773 25.644 13.0123 25.3303C12.6936 25.2266 12.4289 24.9999 12.2766 24.7002C12.2011 24.5518 12.1555 24.3899 12.1424 24.2238C12.1292 24.0577 12.1487 23.8906 12.1999 23.732C12.251 23.5735 12.3327 23.4266 12.4403 23.2998C12.5479 23.173 12.6793 23.0687 12.8271 22.9929C13.1254 22.8399 13.4721 22.8122 13.7908 22.9159C15.2291 23.382 16.7769 23.382 18.2152 22.9159C18.5334 22.8133 18.8791 22.8416 19.1765 22.9945C19.474 23.1475 19.699 23.4126 19.8024 23.7319C19.9057 24.0511 19.8788 24.3985 19.7278 24.6979C19.5767 24.9973 19.3136 25.2244 18.9963 25.3295C18.0283 25.6443 17.017 25.8039 15.9996 25.8024ZM9.19165 22.3212C8.99212 22.3218 8.7953 22.2749 8.61735 22.1842C8.43941 22.0935 8.28543 21.9617 8.16807 21.7996C6.96093 20.1409 6.31194 18.1385 6.31544 16.0838C6.31544 15.7472 6.44853 15.4244 6.68541 15.1865C6.9223 14.9485 7.24359 14.8148 7.5786 14.8148C7.91361 14.8148 8.2349 14.9485 8.47178 15.1865C8.70867 15.4244 8.84175 15.7472 8.84175 16.0838C8.83999 17.6008 9.31962 19.0789 10.211 20.3035C10.3484 20.4927 10.4309 20.7163 10.4496 20.9497C10.4683 21.1831 10.4223 21.4171 10.3168 21.6259C10.2113 21.8346 10.0503 22.01 9.85175 22.1326C9.65317 22.2551 9.42471 22.3201 9.19165 22.3203V22.3212ZM22.8131 22.314C22.5801 22.3138 22.3517 22.249 22.1532 22.1266C21.9546 22.0041 21.7936 21.829 21.688 21.6204C21.5824 21.4118 21.5362 21.1779 21.5547 20.9446C21.5731 20.7113 21.6554 20.4877 21.7925 20.2984C22.6834 19.0719 23.1616 17.5919 23.1575 16.0736V16.0554C23.1575 15.7189 23.2906 15.3961 23.5275 15.1581C23.7644 14.9202 24.0857 14.7865 24.4207 14.7865C24.7557 14.7865 25.077 14.9202 25.3139 15.1581C25.5507 15.3961 25.6838 15.7189 25.6838 16.0554V16.0736C25.6889 18.1286 25.0414 20.1317 23.8354 21.7916C23.7181 21.9535 23.5644 22.0853 23.3867 22.1761C23.209 22.2668 23.0124 22.3141 22.8131 22.314ZM9.17859 12.3788C8.9456 12.3787 8.71716 12.3139 8.51855 12.1916C8.31993 12.0692 8.15888 11.894 8.0532 11.6854C7.94752 11.4768 7.90134 11.2429 7.91975 11.0095C7.93817 10.7762 8.02047 10.5525 8.15754 10.3633C9.36119 8.70416 11.0525 7.46606 12.9933 6.82327C13.3078 6.73259 13.6449 6.76799 13.9339 6.92203C14.2229 7.07606 14.4411 7.33672 14.5426 7.64913C14.6442 7.96154 14.6211 8.30133 14.4783 8.597C14.3355 8.89266 14.084 9.12113 13.7769 9.23431C12.342 9.71032 11.0918 10.6263 10.2022 11.8535C10.0851 12.0161 9.93125 12.1485 9.75331 12.2399C9.57537 12.3312 9.37841 12.3788 9.17859 12.3788ZM22.8042 12.3568C22.6053 12.357 22.4091 12.31 22.2317 12.2196C22.0542 12.1291 21.9006 11.9979 21.7832 11.8365C20.89 10.6121 19.6369 9.7 18.2005 9.22881C18.0426 9.17762 17.8963 9.0957 17.77 8.98772C17.6436 8.87974 17.5397 8.74782 17.4641 8.59948C17.3885 8.45115 17.3427 8.28931 17.3294 8.1232C17.3161 7.9571 17.3354 7.78998 17.3864 7.63139C17.4373 7.4728 17.5189 7.32585 17.6263 7.19892C17.7338 7.07199 17.8652 6.96758 18.0128 6.89163C18.1605 6.81569 18.3216 6.7697 18.4869 6.75631C18.6523 6.74291 18.8186 6.76236 18.9765 6.81354C20.9192 7.45054 22.6142 8.68361 23.8228 10.3392C23.9603 10.5283 24.0431 10.7519 24.0619 10.9853C24.0808 11.2188 24.0349 11.4529 23.9295 11.6618C23.824 11.8707 23.6631 12.0462 23.4645 12.1688C23.2659 12.2915 23.0374 12.3566 22.8042 12.3568Z" fill="url(#paint2_linear_52_8509)"/>
<path d="M50.1235 24.4587C48.6935 24.4587 47.3548 24.0899 46.1074 23.3524C44.86 22.5995 43.8635 21.5931 43.1181 20.3331C42.3727 19.0731 42 17.7133 42 16.2536C42 14.7939 42.3727 13.4417 43.1181 12.1971C43.8635 10.9371 44.86 9.93839 46.1074 9.20085C47.3548 8.44794 48.6935 8.07149 50.1235 8.07149C51.5687 8.07149 52.915 8.44794 54.1624 9.20085C55.4098 9.93839 56.3987 10.9371 57.1289 12.1971C57.8743 13.4417 58.247 14.7939 58.247 16.2536C58.247 17.7133 57.8743 19.0731 57.1289 20.3331C56.3987 21.5931 55.4098 22.5995 54.1624 23.3524C52.915 24.0899 51.5687 24.4587 50.1235 24.4587ZM50.1235 22.3152C51.1579 22.3152 52.1163 22.0387 52.9987 21.4855C53.881 20.9324 54.5808 20.1948 55.098 19.2729C55.6304 18.3356 55.8966 17.3292 55.8966 16.2536C55.8966 15.178 55.6304 14.1792 55.098 13.2573C54.5808 12.3354 53.881 11.5979 52.9987 11.0447C52.1163 10.4915 51.1579 10.215 50.1235 10.215C49.1043 10.215 48.1459 10.4915 47.2483 11.0447C46.366 11.5979 45.6586 12.3354 45.1262 13.2573C44.6089 14.1792 44.3503 15.178 44.3503 16.2536C44.3503 17.3292 44.6089 18.3356 45.1262 19.2729C45.6586 20.1948 46.366 20.9324 47.2483 21.4855C48.1459 22.0387 49.1043 22.3152 50.1235 22.3152Z" fill="black"/>
<path d="M66.6584 11.9897C67.5103 11.9897 68.2709 12.1817 68.9403 12.5659C69.6096 12.95 70.1268 13.4955 70.4919 14.2023C70.8723 14.8937 71.0624 15.6927 71.0624 16.5993V24.1821H68.849V16.9911C68.849 16.0999 68.598 15.3777 68.096 14.8246C67.594 14.2561 66.9398 13.9718 66.1336 13.9718C65.5403 13.9718 64.9926 14.1024 64.4906 14.3636C63.9886 14.6095 63.5931 14.9475 63.304 15.3777C63.015 15.808 62.8705 16.2766 62.8705 16.7837V24.1821H60.6342V12.2663H62.8705V14.0179C63.2204 13.4033 63.7376 12.9116 64.4221 12.5428C65.1067 12.1741 65.8521 11.9897 66.6584 11.9897Z" fill="black"/>
<path d="M78.9686 22.5688C79.6227 22.5688 80.2769 22.4458 80.931 22.2C81.5851 21.9388 82.1024 21.6084 82.4827 21.2089L83.8062 22.6149C83.289 23.168 82.574 23.6136 81.6612 23.9517C80.7637 24.2897 79.889 24.4587 79.037 24.4587C77.9417 24.4587 76.9301 24.1898 76.0021 23.652C75.0742 23.1142 74.3288 22.369 73.7659 21.4164C73.2183 20.4637 72.9444 19.3881 72.9444 18.1896C72.9444 17.0218 73.203 15.9693 73.7203 15.032C74.2527 14.0794 74.9677 13.3341 75.8652 12.7964C76.778 12.2586 77.7744 11.9897 78.8545 11.9897C80.0411 11.9897 81.0603 12.2739 81.9122 12.8425C82.7793 13.411 83.4335 14.2177 83.8746 15.2625C84.331 16.3074 84.5592 17.5366 84.5592 18.9502H75.1579C75.2948 20.0104 75.7055 20.8786 76.3901 21.5546C77.0898 22.2307 77.9494 22.5688 78.9686 22.5688ZM78.923 13.8796C77.9798 13.8796 77.1583 14.1869 76.4585 14.8015C75.774 15.4162 75.348 16.2382 75.1807 17.2677H82.3686C82.2469 16.2689 81.8894 15.4546 81.2961 14.8246C80.7028 14.1946 79.9118 13.8796 78.923 13.8796Z" fill="black"/>
<path d="M89.2665 22.0156H97.5725V24.1821H86.9618V8.34807H89.2665V22.0156Z" fill="black"/>
<path d="M99.854 12.2663H102.09V24.1821H99.854V12.2663ZM100.972 10.2841C100.592 10.2841 100.265 10.1458 99.9909 9.86924C99.7323 9.59267 99.603 9.26999 99.603 8.90122C99.603 8.53245 99.7323 8.21746 99.9909 7.95625C100.265 7.67967 100.592 7.54138 100.972 7.54138C101.337 7.54138 101.649 7.67967 101.908 7.95625C102.182 8.21746 102.318 8.53245 102.318 8.90122C102.318 9.26999 102.182 9.59267 101.908 9.86924C101.649 10.1458 101.337 10.2841 100.972 10.2841Z" fill="black"/>
<path d="M108.021 12.2663H110.805V14.2023H108.021V24.1821H105.808V14.2023H104.051V12.2663H105.808V10.8373C105.808 9.88461 106.097 9.10866 106.675 8.5094C107.253 7.89479 107.998 7.58748 108.911 7.58748C109.337 7.58748 109.755 7.66431 110.166 7.81796C110.592 7.97161 110.965 8.17905 111.284 8.44026L110.44 9.96144C110.318 9.83851 110.151 9.73864 109.938 9.66181C109.725 9.56962 109.497 9.52352 109.253 9.52352C108.919 9.52352 108.63 9.66181 108.386 9.93839C108.143 10.1996 108.021 10.5376 108.021 10.9525V12.2663Z" fill="black"/>
<path d="M117.743 22.5688C118.397 22.5688 119.051 22.4458 119.705 22.2C120.359 21.9388 120.877 21.6084 121.257 21.2089L122.58 22.6149C122.063 23.168 121.348 23.6136 120.435 23.9517C119.538 24.2897 118.663 24.4587 117.811 24.4587C116.716 24.4587 115.704 24.1898 114.776 23.652C113.848 23.1142 113.103 22.369 112.54 21.4164C111.992 20.4637 111.719 19.3881 111.719 18.1896C111.719 17.0218 111.977 15.9693 112.494 15.032C113.027 14.0794 113.742 13.3341 114.639 12.7964C115.552 12.2586 116.549 11.9897 117.629 11.9897C118.815 11.9897 119.834 12.2739 120.686 12.8425C121.553 13.411 122.208 14.2177 122.649 15.2625C123.105 16.3074 123.333 17.5366 123.333 18.9502H113.932C114.069 20.0104 114.48 20.8786 115.164 21.5546C115.864 22.2307 116.723 22.5688 117.743 22.5688ZM117.697 13.8796C116.754 13.8796 115.932 14.1869 115.233 14.8015C114.548 15.4162 114.122 16.2382 113.955 17.2677H121.143C121.021 16.2689 120.664 15.4546 120.07 14.8246C119.477 14.1946 118.686 13.8796 117.697 13.8796Z" fill="black"/>
<defs>
<linearGradient id="paint0_linear_52_8509" x1="27.9399" y1="29.6841" x2="5.8164" y2="0.890946" gradientUnits="userSpaceOnUse">
<stop stop-color="#3280F6"/>
<stop offset="0.984457" stop-color="#7DFFDE"/>
</linearGradient>
<linearGradient id="paint1_linear_52_8509" x1="13.3838" y1="13.1127" x2="18.4665" y2="19.639" gradientUnits="userSpaceOnUse">
<stop stop-color="#67DFBF"/>
<stop offset="1" stop-color="#32AFF6"/>
</linearGradient>
<linearGradient id="paint2_linear_52_8509" x1="9.47332" y1="9.29326" x2="22.5744" y2="26.1613" gradientUnits="userSpaceOnUse">
<stop stop-color="#64D9BD"/>
<stop offset="0.270833" stop-color="#3D89EF"/>
</linearGradient>
</defs>
</svg>
