<svg width="20" height="20" viewBox="0 0 20 20" fill="none" xmlns="http://www.w3.org/2000/svg">
<path d="M15.0258 13.8475L18.595 17.4158L17.4158 18.595L13.8475 15.0258C12.5198 16.0901 10.8683 16.669 9.16666 16.6666C5.02666 16.6666 1.66666 13.3066 1.66666 9.16663C1.66666 5.02663 5.02666 1.66663 9.16666 1.66663C13.3067 1.66663 16.6667 5.02663 16.6667 9.16663C16.6691 10.8683 16.0902 12.5197 15.0258 13.8475ZM13.3542 13.2291C14.4118 12.1415 15.0024 10.6837 15 9.16663C15 5.94329 12.3892 3.33329 9.16666 3.33329C5.94332 3.33329 3.33332 5.94329 3.33332 9.16663C3.33332 12.3891 5.94332 15 9.16666 15C10.6837 15.0023 12.1416 14.4117 13.2292 13.3541L13.3542 13.2291ZM10.1483 5.97996C9.9026 6.09096 9.68747 6.25992 9.5214 6.47234C9.35533 6.68476 9.24328 6.9343 9.19486 7.19955C9.14644 7.4648 9.16309 7.73784 9.2434 7.99524C9.3237 8.25263 9.46526 8.4867 9.65592 8.67736C9.84658 8.86802 10.0806 9.00958 10.338 9.08988C10.5954 9.17019 10.8685 9.18685 11.1337 9.13842C11.399 9.09 11.6485 8.97795 11.8609 8.81188C12.0734 8.64581 12.2423 8.43069 12.3533 8.18496C12.5723 8.89631 12.5469 9.6605 12.2812 10.3558C12.0155 11.051 11.5247 11.6373 10.8871 12.0213C10.2495 12.4053 9.50172 12.5648 8.76292 12.4744C8.02413 12.3841 7.33682 12.0491 6.81052 11.5228C6.28422 10.9965 5.94921 10.3092 5.85886 9.57036C5.76851 8.83156 5.92803 8.08378 6.31199 7.44616C6.69596 6.80855 7.28228 6.31778 7.97753 6.05206C8.67279 5.78634 9.43697 5.76096 10.1483 5.97996Z" fill="#3280F6"/>
</svg>
